# AST/ASF file generated using VICON BodyLanguage
# -----------------------------------------------
:version 1.10
:name VICON
:units
  mass 1.0
  length 0.45
  angle deg
:documentation
   .ast/.asf automatically generated from VICON data using
   VICON BodyBuilder and BodyLanguage model FoxedUp or BRILLIANT.MOD
:root
   order TX TY TZ RX RY RZ
   axis XYZ
   position 0 0 0  
   orientation 0 0 0 
:bonedata
  begin
     id 1 
     name lhipjoint
     direction 0.714689 -0.624256 0.315473 
     length 2.45343 
     axis 0 0 0  XYZ
  end
  begin
     id 2 
     name lfemur
     direction 0.34202 -0.939693 0  
     length 6.59069  
     axis 0 0 20  XYZ
    dof rx ry rz
    limits (-160.0 20.0)
           (-70.0 70.0)
           (-60.0 70.0)
  end
  begin
     id 3 
     name ltibia
     direction 0.34202 -0.939693 0   
     length 6.73476   
     axis 0 0 20   XYZ
    dof rx
    limits (-10.0 170.0)
  end
  begin
     id 4 
     name lfoot
     direction 0.0718085 -0.197292 0.977711   
     length 1.52607   
     axis -90 7.62852e-016 20   XYZ
    dof rx rz
    limits (-45.0 90.0)
           (-70.0 20.0)
  end
  begin
     id 5 
     name ltoes
     direction 1.53553e-011 -4.22024e-011 1   
     length 0.777832   
     axis -90 7.62852e-016 20   XYZ
    dof rx
    limits (-90.0 20.0)
  end
  begin
     id 6 
     name rhipjoint
     direction -0.727419 -0.612432 0.309497   
     length 2.50079  
     axis 0 0 0  XYZ 
  end
  begin
     id 7 
     name rfemur
     direction -0.34202 -0.939693 0   
     length 6.51665   
     axis 0 0 -20   XYZ
    dof rx ry rz
    limits (-160.0 20.0)
           (-70.0 70.0)
           (-70.0 60.0)
  end
  begin
     id 8 
     name rtibia
     direction -0.34202 -0.939693 0   
     length 6.48919   
     axis 0 0 -20   XYZ
    dof rx
    limits (-10.0 170.0)
 end
 begin
     id 9 
     name rfoot
     direction -0.112205 -0.308282 0.944655   
     length 1.68717  
     axis -90 -7.62852e-016 -20   XYZ
    dof rx rz
    limits (-45.0 90.0)
           (-20.0 70.0)
  end
  begin
     id 10 
     name rtoes
     direction -1.53583e-011 -4.21993e-011 1   
     length 0.846859   
     axis -90 -7.62852e-016 -20   XYZ
    dof rx
    limits (-90.0 20.0)
  end
  begin
     id 11 
     name lowerback
     direction -0.00119603 0.996364 -0.0851956   
     length 1.67242   
     axis 0 0 0   XYZ
    dof rx ry rz
    limits (-20.0 45.0)
           (-30.0 30.0)
           (-30.0 30.0)
  end
  begin
     id 12 
     name upperback
     direction -0.00531001 0.998318 0.0577248   
     length 1.64819   
     axis 0 0 0   XYZ
    dof rx ry rz
    limits (-20.0 45.0)
           (-30.0 30.0)
           (-30.0 30.0)
  end
  begin
     id 13 
     name thorax
     direction -0.00653676 0.995132 0.0983291   
     length 1.67429   
     axis 0 0 0   XYZ
    dof rx ry rz
    limits (-20.0 45.0)
           (-30.0 30.0)
           (-30.0 30.0)
  end
  begin
     id 14 
     name lowerneck
     direction 0.0141424 0.999886 0.00525412   
     length 1.59623   
     axis 0 0 0   XYZ
    dof rx ry rz
    limits (-20.0 45.0)
           (-30.0 30.0)
           (-30.0 30.0)
  end
  begin
     id 15 
     name upperneck
     direction -0.0640064 0.987178 -0.146232   
     length 1.59576   
     axis 0 0 0   XYZ
    dof rx ry rz
    limits (-20.0 45.0)
           (-30.0 30.0)
           (-30.0 30.0)
  end
  begin
     id 16
     name head
     direction -0.0222942 0.998496 -0.0500859  
     length 1.60959  
     axis 0 0 0   XYZ
    dof rx ry rz
    limits (-20.0 45.0)
           (-30.0 30.0)
           (-30.0 30.0)
  end
  begin
     id 17 
     name lclavicle
     direction 0.908549 0.392612 0.142806  
     length 2.80649  
     axis 0 0 0   XYZ
    dof ry rz
    limits (-20.0 10.0)
           (0.0 20.0)
  end
  begin
     id 18 
     name lhumerus
     direction 1 -4.48968e-011 1.08832e-028   
     length 4.2884   
     axis -180 -30 -90   XYZ
    dof rx ry rz
    limits (-60.0 90.0)
           (-90.0 90.0)
           (-90.0 90.0)
  end
  begin
     id 19
     name lradius
     direction 1 -4.48952e-011 -3.02642e-028   
     length 3.06552   
     axis -180 -30 -90   XYZ
    dof rx
    limits (-10.0 170.0)
  end
  begin
     id 20
     name lwrist
     direction 1 -4.49014e-011 1.58672e-027   
     length 1.53276   
     axis -1.65735e-015 90 90   XYZ
    dof ry
    limits (-180.0 0.0)
 end
  begin
     id 21 
     name lhand
     direction 1 -4.48928e-011 3.17344e-027   
     length 0.753045   
     axis -2.02492e-015 90 90   XYZ
    dof rx rz
    limits (-90.0 90.0)
           (-45.0 45.0)
  end
  begin
     id 22 
     name lfingers
     direction 1 -4.48958e-011 6.34687e-027   
     length 0.607124   
     axis -4.04985e-015 90 90   XYZ
    dof rx
    limits (0.0 90.0)
  end
  begin
     id 23
     name lthumb
     direction 0.707107 -6.34905e-011 0.707107   
     length 0.871712   
     axis -90 45 2.85299e-015   XYZ
    dof rx rz
    limits (-45.0 45.0)
           (-45.0 45.0)
  end
  begin
     id 24 
     name rclavicle
     direction -0.885098 0.45949 0.0739604   
     length 2.9478  
     axis 0 0 0   XYZ 
    dof ry rz
    limits (-10.0 20.0)
           (-20.0 0.0)
  end
  begin
     id 25 
     name rhumerus
     direction -1 -4.4898e-011 -2.61739e-027  
     length 4.52172   
     axis -180 30 90   XYZ
    dof rx ry rz
    limits (-90.0 60.0)
           (-90.0 90.0)
           (-90.0 90.0)
  end
  begin
     id 26 
     name rradius
     direction -1 -4.48945e-011 9.02552e-028   
     length 2.8914   
     axis -180 30 90   XYZ
    dof rx
    limits (-10.0 170.0)
  end
  begin
     id 27 
     name rwrist
     direction -1 -4.49018e-011 1.58672e-027   
     length 1.4457   
     axis -1.65735e-015 -90 -90   XYZ
    dof ry
    limits (-180.0 0.0)
  end
  begin
     id 28
     name rhand
     direction -1 -4.48825e-011 3.17344e-027   
     length 0.680541   
     axis -2.02492e-015 -90 -90   XYZ
    dof rx rz
    limits (-90.0 90.0)
           (-45.0 45.0)
  end
  begin
     id 29
     name rfingers
     direction -1 -4.49067e-011 6.34687e-027   
     length 0.54867   
     axis -4.04985e-015 -90 -90   XYZ
    dof rx
    limits (0.0 90.0)
  end
  begin
     id 30
     name rthumb
     direction -0.707107 -6.34833e-011 0.707107   
     length 0.787783   
     axis -90 -45 -2.85299e-015   XYZ
    dof rx rz
    limits (-45.0 45.0)
           (-45.0 45.0)
  end
:hierarchy
  begin
    root lhipjoint rhipjoint lowerback
    lhipjoint lfemur
    lfemur ltibia
    ltibia lfoot
    lfoot ltoes
    rhipjoint rfemur
    rfemur rtibia
    rtibia rfoot
    rfoot rtoes
    lowerback upperback
    upperback thorax
    thorax lowerneck lclavicle rclavicle
    lowerneck upperneck
    upperneck head
    lclavicle lhumerus
    lhumerus lradius
    lradius lwrist
    lwrist lhand lthumb
    lhand lfingers
    rclavicle rhumerus
    rhumerus rradius
    rradius rwrist
    rwrist rhand rthumb
    rhand rfingers
  end

#!OML:ASF E:\emotionWalksFemale\Project 1\Capture day 1\Session 1\Female1.ASF
:FULLY-SPECIFIED
:DEGREES
130
root 8.97673 12.916 21.6677 205.282 -4.3126 -179.11
lowerback 25.1348 1.39044 0.697104
upperback -1.48504 2.02907 0.647443
thorax -15.9387 0.820486 -0.403476
lowerneck -7.85067 -3.30002 -8.32253
upperneck -22.8095 -6.21648 6.49191
head -5.19888 -4.06303 3.69351
rclavicle -1.41137e-014 -2.42517e-014
rhumerus 50.6651 13.9637 -59.0486
rradius 44.1528
rwrist 8.76808
rhand -4.36318 -62.2098
rfingers 7.12502
rthumb 21.4052 91.0474
lclavicle -1.41137e-014 -2.42517e-014
lhumerus 59.2973 -5.98289 77.7829
lradius 30.3943
lwrist -4.54503
lhand -13.8038 -49.7051
lfingers 7.12502
lthumb 12.3183 -20.0879
rfemur -62.1922 2.95096 27.5671
rtibia 84.3225
rfoot -33.0692 -24.9323
rtoes -2.67239
lfemur -66.0065 0.760629 -20.4779
ltibia 84.2829
lfoot -36.2739 1.4663
ltoes -29.8513
131
root 8.97639 13.0073 21.5756 204.948 -4.01662 -179.019
lowerback 23.8009 1.44225 0.753553
upperback -1.09534 2.06198 0.50387
thorax -14.6883 0.835777 -0.576182
lowerneck -7.62173 -3.26878 -8.28854
upperneck -23.2531 -6.23341 6.61511
head -5.37066 -4.10441 3.75572
rclavicle 8.74653e-015 -3.97569e-015
rhumerus 54.709 12.1456 -56.7048
rradius 45.9009
rwrist 6.56669
rhand -5.49513 -63.8866
rfingers 7.12502
rthumb 20.3176 92.8438
lclavicle 8.74653e-015 -3.97569e-015
lhumerus 65.0905 -5.56261 75.0336
lradius 30.473
lwrist -3.30551
lhand -14.8611 -51.0346
lfingers 7.12502
lthumb 11.2987 -21.3589
rfemur -60.7489 3.05529 27.6759
rtibia 83.0399
rfoot -32.5368 -25.106
rtoes -3.08992
lfemur -64.6437 1.12872 -20.4518
ltibia 83.3304
lfoot -35.8892 1.11008
ltoes -29.6372
132
root 8.9675 13.1103 21.4666 204.193 -3.90384 -179.066
lowerback 23.8722 1.4685 0.773849
upperback -1.39768 2.11713 0.420155
thorax -15.0865 0.857669 -0.712446
lowerneck -6.50377 -3.33622 -8.42064
upperneck -23.3347 -6.27156 6.72733
head -5.56012 -4.07059 3.84906
rclavicle 1.09332e-014 -1.19271e-015
rhumerus 57.6711 10.7048 -53.7942
rradius 47.3473
rwrist 3.96514
rhand -7.58892 -62.9441
rfingers 7.12502
rthumb 18.3043 92.1029
lclavicle 1.09332e-014 -1.19271e-015
lhumerus 69.3369 -5.18008 72.947
lradius 30.505
lwrist -2.36928
lhand -15.5187 -52.2866
lfingers 7.12502
lthumb 10.6645 -22.5773
rfemur -58.6231 2.80548 27.6893
rtibia 81.5629
rfoot -32.2358 -25.1113
rtoes -3.10477
lfemur -62.5977 1.25276 -20.5086
ltibia 82.1632
lfoot -35.5339 1.08555
ltoes -29.5961
133
root 8.95632 13.2249 21.3409 203.528 -3.8164 -179.041
lowerback 24.3276 1.54587 0.758718
upperback -1.9626 2.26739 0.466397
thorax -16.0372 0.92667 -0.730403
lowerneck -6.31942 -3.53093 -8.69048
upperneck -22.6659 -6.41941 6.66609
head -5.35947 -4.05941 3.84609
rclavicle -2.78299e-015 -2.38542e-015
rhumerus 60.2489 9.31375 -50.2322
rradius 48.8912
rwrist 0.483761
rhand -9.6831 -63.1576
rfingers 7.12502
rthumb 16.2888 92.4934
lclavicle -2.78299e-015 -2.38542e-015
lhumerus 72.6785 -4.69772 70.9017
lradius 30.6827
lwrist -0.720785
lhand -15.9124 -54.1789
lfingers 7.12502
lthumb 10.2847 -24.4503
rfemur -56.4035 2.53991 27.7454
rtibia 79.8872
rfoot -31.8559 -24.9434
rtoes -2.72047
lfemur -60.5334 1.41336 -20.4915
ltibia 80.8594
lfoot -35.0759 0.812593
ltoes -29.0419
134
root 8.9414 13.3609 21.2078 202.618 -3.75522 -179.01
lowerback 24.6875 1.57274 0.779116
upperback -2.0221 2.33202 0.590617
thorax -16.326 0.955437 -0.632472
lowerneck -7.43037 -3.66835 -9.08006
upperneck -21.8738 -6.52051 6.55847
head -4.92251 -4.06854 3.80522
rclavicle -2.78299e-015 -8.34896e-015
rhumerus 63.1045 7.12941 -47.4712
rradius 50.4466
rwrist -1.42495
rhand -9.53104 -62.7723
rfingers 7.12502
rthumb 16.4352 92.0961
lclavicle -2.78299e-015 -8.34896e-015
lhumerus 76.201 -3.45678 69.8815
lradius 31.3244
lwrist -0.179117
lhand -15.3418 -52.5557
lfingers 7.12502
lthumb 10.8351 -22.8552
rfemur -53.723 2.19151 27.7562
rtibia 77.9479
rfoot -31.4382 -24.5161
rtoes -2.28417
lfemur -58.0719 1.53313 -20.4669
ltibia 79.347
lfoot -34.2971 0.593103
ltoes -29.0153
135
root 8.92404 13.5009 21.0662 201.918 -3.53988 -178.938
lowerback 23.8514 1.65928 0.839196
upperback -1.81554 2.44813 0.600684
thorax -15.5805 1.01295 -0.670418
lowerneck -7.17105 -3.56574 -9.22143
upperneck -22.3161 -6.46546 6.51048
head -5.10791 -4.0444 3.84305
rclavicle -1.03368e-014 -1.74931e-014
rhumerus 65.6338 4.40581 -45.3007
rradius 51.9986
rwrist -2.94839
rhand -9.83443 -61.9185
rfingers 7.12502
rthumb 16.1431 91.2662
lclavicle -1.03368e-014 -1.74931e-014
lhumerus 79.5513 -2.22543 68.8279
lradius 32.3957
lwrist 1.19833
lhand -16.392 -56.3912
lfingers 7.12502
lthumb 9.82194 -26.6402
rfemur -51.2438 1.92207 27.7319
rtibia 75.8552
rfoot -30.806 -23.996
rtoes -2.03401
lfemur -55.7667 1.77829 -20.4673
ltibia 77.7157
lfoot -33.2741 0.488787
ltoes -30.151
